<?xml version="1.0" encoding="utf-8"?>
<!-- Generator: Adobe Illustrator 22.1.0, SVG Export Plug-In . SVG Version: 6.00 Build 0)  -->
<svg version="1.1" id="Logo" xmlns="http://www.w3.org/2000/svg" xmlns:xlink="http://www.w3.org/1999/xlink" x="0px" y="0px"
	 viewBox="0 0 1282 356" style="enable-background:new 0 0 1282 356;" xml:space="preserve">
<style type="text/css">
	.st0{fill:url(#SVGID_1_);}
	.st1{fill:#FFFFFF;}
</style>
<g id="Gradient">
	<linearGradient id="SVGID_1_" gradientUnits="userSpaceOnUse" x1="591.9274" y1="-78.6193" x2="682.0726" y2="432.6193">
		<stop  offset="0" style="stop-color:#F15A24"/>
		<stop  offset="0.1623" style="stop-color:#ED5A25"/>
		<stop  offset="0.3401" style="stop-color:#DF5829"/>
		<stop  offset="0.5246" style="stop-color:#CA572E"/>
		<stop  offset="0.646" style="stop-color:#B75533"/>
		<stop  offset="0.6836" style="stop-color:#B25534"/>
		<stop  offset="0.8355" style="stop-color:#A35338"/>
		<stop  offset="0.96" style="stop-color:#9E5339"/>
	</linearGradient>
	<rect x="78" y="12" class="st0" width="1118" height="330"/>
</g>
<g>
	<polygon class="st1" points="661.5,148 703,148 682.2,97.3 	"/>
	<path class="st1" d="M858.3,88.2h-34.2v44.9H859c16.8,0,26.4-8.9,26.4-22.1v-0.4C885.4,95.8,875.1,88.2,858.3,88.2z"/>
	<path class="st1" d="M912.8,269.5v-0.2c0-7.9-6.2-12.8-16.9-12.8h-20.1V283h19.8C905.5,283,912.8,278,912.8,269.5z"/>
	<circle class="st1" cx="210.1" cy="135" r="14.3"/>
	<path class="st1" d="M0,0v356h1282V0H0z M87.1,135l41-12.9c2.4-15.3,9-29.3,18.6-40.6l-13.5-23.3l23.3,13.5
		c11.3-9.6,25.3-16.2,40.6-18.6l-10.3,32.8c-18.4,8.7-31.2,27.4-31.2,49.1h-28.6H87.1z M210.1,189.3v28.6v40l-12.9-41
		c-6.7-1-13.1-2.9-19.1-5.4L167,228.8l5.9-19.7c-5.9-3-11.4-6.6-16.4-10.8l-23.3,13.5l13.5-23.3c-9.6-11.3-16.2-25.3-18.6-40.6
		l32.8,10.3c4.5,9.5,11.6,17.4,20.5,23l7.7-25.6c-2.8-2.8-5-6.3-6.5-10.3c-5.6-15.2,2.1-32,17.3-37.7c4-1.5,8.1-2,12.1-1.8
		l14.4-22.6c-5.1-1.6-10.6-2.5-16.3-2.5V52V12L223,53c6.7,1,13.1,2.9,19.1,5.4l11.1-17.4l-5.9,19.7c5.9,3,11.4,6.6,16.4,10.8
		l23.3-13.5l-13.5,23.3c9.6,11.3,16.2,25.3,18.6,40.6l-32.8-10.3c-4.5-9.5-11.6-17.4-20.5-23l-7.7,25.6c2.8,2.8,5,6.3,6.5,10.3
		c5.6,15.2-2.1,32-17.3,37.7c-4,1.5-8.1,2-12.1,1.8l-14.4,22.6C198.9,188.4,204.4,189.3,210.1,189.3z M423.8,296.1
		c0,9.5-8.1,16-19.5,16c-9.4,0-16.6-3.1-23.7-9.4l2.9-3.3c6.5,6,12.4,8.7,21.1,8.7c8.8,0,14.8-4.9,14.8-11.7v-0.2
		c0-6.2-3.3-9.8-16.6-12.5c-14.1-2.9-19.8-7.6-19.8-16.5v-0.2c0-8.7,8-15.4,18.9-15.4c8.6,0,14.2,2.3,20.1,7.1l-2.8,3.4
		c-5.5-4.8-11.1-6.6-17.5-6.6c-8.6,0-14.3,4.9-14.3,11.1v0.2c0,6.2,3.2,10,17.1,12.8c13.6,2.8,19.3,7.6,19.3,16.2V296.1z
		 M450.9,213.5h-29.3l-75.8-99.4v99.4h-34v-72l-19.9,6.3c-2.4,15.3-9,29.3-18.6,40.6l13.5,23.3l-23.3-13.5
		c-11.3,9.6-25.3,16.2-40.6,18.6l10.3-32.8c18.4-8.7,31.2-27.4,31.2-49.1H279v0h54l-21-6.6V57.1h31.7l73.3,96.3V57.1h34V213.5z
		 M518.9,286.3c0,16.9-9.8,25.8-24.1,25.8c-14.1,0-24.1-8.9-24.1-25.3v-34.3h4.4v33.9c0,13.8,7.5,21.8,19.9,21.8
		c11.9,0,19.5-7.2,19.5-21.4v-34.3h4.4V286.3z M559.3,213.5h-34.4V88.8h-47.6V57.1h129.6v31.7h-47.6V213.5z M624.3,311.2H620v-51
		L596.7,294h-0.3l-23.2-33.8v51H569v-58.7h4.1l23.6,34.7l23.6-34.7h4.1V311.2z M730.7,311.2h-4.4v-51L703.1,294h-0.3l-23.2-33.8v51
		h-4.2v-58.7h4.1l23.6,34.7l23.6-34.7h4.1V311.2z M729.6,213.5l-14.3-35.1h-66.1l-14.3,35.1h-35.1l67-157.5h31.7l67,157.5H729.6z
		 M823.9,311.2h-42.2v-58.7h41.8v4h-37.4v23.1h33.6v4h-33.6v23.6h37.8V311.2z M913.8,311.2l-18.7-24.3h-19.2v24.3h-4.4v-58.7h24.7
		c12.7,0,21,6.9,21,16.7v0.2c0,9.8-7.3,15.4-17.2,16.8l19.4,25.1H913.8z M884.7,213.5l-33.5-50.1h-27v50.1h-34.4V57.1h71.5
		c36.9,0,59,19.4,59,51.6v0.4c0,25.3-13.6,41.1-33.5,48.5l38.2,55.9H884.7z M987.3,213.5h-34.4V57.1h34.4V213.5z M1185.7,135.3
		c0,44.5-35.1,80.9-83.4,80.9c-48.3,0-82.9-36-82.9-80.5v-0.4c0-44.5,35.1-80.9,83.4-80.9c48.3,0,82.9,36,82.9,80.5V135.3z"/>
	<path class="st1" d="M1102.4,86.1c-27.7,0-46.9,21.9-46.9,48.7v0.4c0,26.8,19.7,49.2,47.4,49.2c27.7,0,46.9-21.9,46.9-48.7v-0.4
		C1149.7,108.5,1130.1,86.1,1102.4,86.1z"/>
</g>
</svg>
